<svg fill="none" height="24" viewBox="0 0 24 24" width="24" xmlns="http://www.w3.org/2000/svg"><g stroke="#292d32" stroke-linecap="round" stroke-linejoin="round" stroke-miterlimit="10" stroke-width="1.5"><path d="m1.09976 19.0699c-.440004 1.46.62998 2.9301 2.13998 2.9301h13.14006c1.04 0 1.9299-.7 2.1799-1.71l3.37-13.52999c.12-.5.0801-.99004-.1099-1.42004-.33-.8-1.12-1.38001-2.07-1.38001h-12.30004c-.98 0-1.86001.64009-2.14001 1.59009l-2.63001 8.45995"/><path d="m16 22h4.78c1.29 0 2.3-1.09 2.21-2.38l-.99-13.62"/><path d="m9.67969 6.38 1.04001-4.31994"/><path d="m16.3809 6.39001.94-4.33996"/><path d="m7.69922 12h7.99998"/><path d="m14.7 16h-.7"/><path d="m6.69922 16h4.29998"/></g></svg>